<svg aria-hidden="true" style="position: absolute; width: 0; height: 0; overflow: hidden;" version="1.1" xmlns="http://www.w3.org/2000/svg" xmlns:xlink="http://www.w3.org/1999/xlink">
<defs>
<symbol id="icon-Star-1" viewBox="0 0 34 32">
<path fill="#ab816c" style="fill: var(--color1, #ab816c)" d="M15.24 1.561c0.504-1.552 2.699-1.552 3.204 0l2.558 7.872c0.225 0.694 0.872 1.164 1.602 1.164h8.277c1.632 0 2.31 2.088 0.99 3.047l-6.696 4.865c-0.59 0.429-0.837 1.189-0.612 1.883l2.558 7.872c0.504 1.552-1.272 2.842-2.592 1.883l-6.696-4.865c-0.59-0.429-1.39-0.429-1.98 0l-6.696 4.865c-1.32 0.959-3.096-0.331-2.592-1.883l2.558-7.872c0.225-0.694-0.022-1.454-0.612-1.883l-6.696-4.865c-1.32-0.959-0.642-3.047 0.99-3.047h8.277c0.73 0 1.376-0.47 1.602-1.164l2.558-7.872z"></path>
</symbol>
<symbol id="icon-close" viewBox="0 0 32 32">
<path d="M30.355 32c0.422 0 0.843-0.16 1.163-0.483 0.643-0.643 0.643-1.685 0-2.328l-28.707-28.707c-0.643-0.643-1.685-0.643-2.328 0s-0.643 1.685 0 2.329l28.707 28.706c0.323 0.321 0.744 0.483 1.165 0.483z"></path>
<path d="M1.645 32c0.422 0 0.843-0.16 1.163-0.483l28.709-28.706c0.643-0.643 0.643-1.686 0-2.329s-1.685-0.643-2.329 0l-28.707 28.707c-0.643 0.643-0.643 1.685 0 2.328 0.323 0.321 0.744 0.483 1.163 0.483z"></path>
</symbol>
<symbol id="icon-location" viewBox="0 0 23 32">
<path d="M11.733 0c6.47 0 11.733 5.131 11.733 11.438 0 2.496-0.809 4.867-2.341 6.857l-8.669 11.382c-0.022 0.028-0.055 0.038-0.079 0.063-0.433 0.452-1.058 0.339-1.367-0.063-2.496-3.247-7.072-9.312-8.832-11.599 0 0-0.001-0.002-0.001-0.003l-0.011-0.014c-1.418-1.942-2.167-4.232-2.167-6.623 0-6.307 5.264-11.438 11.733-11.438zM11.733 17.609c3.483 0 6.33-2.775 6.33-6.171s-2.847-6.171-6.33-6.171c-3.483 0-6.33 2.775-6.33 6.171s2.847 6.171 6.33 6.171z"></path>
</symbol>
<symbol id="icon-Group" viewBox="0 0 32 32">
<path d="M29.43 20.474c-1.959 0-3.882-0.299-5.705-0.886-0.893-0.297-1.991-0.025-2.536 0.521l-3.598 2.648c-4.172-2.171-6.743-4.676-8.939-8.713l2.636-3.416c0.685-0.667 0.931-1.641 0.636-2.554-0.605-1.786-0.912-3.66-0.912-5.571 0-1.38-1.152-2.503-2.567-2.503h-5.876c-1.416 0-2.568 1.123-2.568 2.503 0 15.819 13.202 28.689 29.43 28.689 1.416 0 2.568-1.123 2.568-2.503v-5.712c0-1.38-1.152-2.503-2.568-2.503z"></path>
</symbol>
<symbol id="icon-Frame-22" viewBox="0 0 32 32">
<path fill="#674d40" style="fill: var(--color2, #674d40)" d="M24.62 16.411c0-5.844-6.16-9.674-12.31-9.674-6.175 0-12.31 3.848-12.31 9.674 0 2.204 0.965 4.359 2.718 6.069 0.067 0.066 0.093 0.165 0.067 0.259-0.551 2.017-1.855 3.839-2.39 4.529-0.166 0.215-0.194 0.498-0.071 0.741 0.12 0.237 0.356 0.382 0.621 0.382 0.006 0 0.012-0 0.018-0 2.618-0.065 5.653-0.804 7.529-2.649 0.066-0.064 0.16-0.090 0.252-0.068 1.153 0.273 2.353 0.412 3.566 0.412 6.173-0 12.31-3.847 12.31-9.674zM8.96 24.761c-0.408-0.097-0.828 0.020-1.125 0.312-1.876 1.845-4.939 2.264-6.39 2.357 0.662-0.914 1.74-2.594 2.244-4.444 0.115-0.423-0.006-0.874-0.317-1.177-1.593-1.554-2.435-3.42-2.435-5.398 0-4.817 5.102-8.737 11.373-8.737s11.373 3.919 11.373 8.737-5.102 8.737-11.373 8.737c-1.141 0-2.268-0.13-3.35-0.387z"></path>
<path fill="#674d40" style="fill: var(--color2, #674d40)" d="M27.636 24.2c2.733-1.381 4.365-3.735 4.365-6.297 0-3.621-3.273-6.714-7.782-7.356-0.256-0.036-0.494 0.142-0.53 0.398s0.142 0.494 0.398 0.53c4.043 0.575 6.977 3.279 6.977 6.428 0 2.201-1.439 4.242-3.85 5.46-0.469 0.237-0.72 0.761-0.611 1.274 0.229 1.074 0.715 2.069 1.104 2.743-2.768-0.461-3.817-1.789-4.149-2.364-0.205-0.355-0.588-0.575-1.001-0.575-0.001 0-0.003 0-0.004 0h-0.034c-0.52 0-1.040-0.036-1.547-0.107-0.256-0.036-0.493 0.143-0.529 0.399s0.142 0.493 0.399 0.529c0.55 0.077 1.114 0.116 1.677 0.116h0.039c0.078 0 0.15 0.041 0.188 0.106 1.27 2.2 4.188 2.762 5.384 2.901 0.264 0.031 0.516-0.090 0.657-0.316s0.139-0.504-0.005-0.728c-0.36-0.561-1.003-1.684-1.262-2.901-0.021-0.097 0.027-0.197 0.117-0.242z"></path>
<path fill="#674d40" style="fill: var(--color2, #674d40)" d="M5.016 14.734c-0.896 0-1.625 0.729-1.625 1.625s0.729 1.625 1.625 1.625 1.625-0.729 1.625-1.625c0-0.896-0.729-1.625-1.625-1.625zM5.016 17.046c-0.379 0-0.687-0.308-0.687-0.687s0.308-0.687 0.687-0.687c0.379 0 0.687 0.308 0.687 0.687s-0.308 0.687-0.687 0.687z"></path>
<path fill="#674d40" style="fill: var(--color2, #674d40)" d="M9.65 14.734c-0.896 0-1.625 0.729-1.625 1.625s0.729 1.625 1.625 1.625 1.625-0.729 1.625-1.625c0-0.896-0.729-1.625-1.625-1.625zM9.65 17.046c-0.379 0-0.687-0.308-0.687-0.687s0.308-0.687 0.687-0.687c0.379 0 0.687 0.308 0.687 0.687s-0.308 0.687-0.687 0.687z"></path>
<path fill="#674d40" style="fill: var(--color2, #674d40)" d="M14.285 14.734c-0.896 0-1.625 0.729-1.625 1.625s0.729 1.625 1.625 1.625 1.625-0.729 1.625-1.625c0-0.896-0.729-1.625-1.625-1.625zM14.285 17.046c-0.379 0-0.687-0.308-0.687-0.687s0.308-0.687 0.687-0.687c0.379 0 0.687 0.308 0.687 0.687s-0.308 0.687-0.687 0.687z"></path>
<path fill="#674d40" style="fill: var(--color2, #674d40)" d="M18.919 14.734c-0.896 0-1.625 0.729-1.625 1.625s0.729 1.625 1.625 1.625 1.625-0.729 1.625-1.625c0-0.896-0.729-1.625-1.625-1.625zM18.919 17.046c-0.379 0-0.687-0.308-0.687-0.687s0.308-0.687 0.687-0.687c0.379 0 0.687 0.308 0.687 0.687s-0.308 0.687-0.687 0.687z"></path>
</symbol>
<symbol id="icon-Frame-21" viewBox="0 0 32 32">
<path fill="#674d40" style="fill: var(--color2, #674d40)" d="M16 0c-8.822 0-16 7.178-16 16s7.178 16 16 16c8.822 0 16-7.178 16-16s-7.178-16-16-16zM16 30.933c-8.234 0-14.933-6.699-14.933-14.933s6.699-14.933 14.933-14.933c8.234 0 14.933 6.699 14.933 14.933s-6.699 14.933-14.933 14.933z"></path>
<path fill="#674d40" style="fill: var(--color2, #674d40)" d="M16.533 13.878v-5.409c0-0.295-0.239-0.533-0.533-0.533s-0.533 0.238-0.533 0.533v5.409c-0.746 0.194-1.33 0.778-1.524 1.524h-3.809c-0.294 0-0.533 0.238-0.533 0.533s0.239 0.533 0.533 0.533h3.809c0.238 0.917 1.067 1.6 2.058 1.6 1.177 0 2.133-0.957 2.133-2.133 0-0.991-0.683-1.819-1.6-2.058zM16 17.002c-0.588 0-1.067-0.478-1.067-1.067s0.478-1.067 1.067-1.067c0.588 0 1.067 0.478 1.067 1.067s-0.478 1.067-1.067 1.067z"></path>
<path fill="#674d40" style="fill: var(--color2, #674d40)" d="M16 5.269c0.294 0 0.533-0.238 0.533-0.533v-0.533c0-0.295-0.239-0.533-0.533-0.533s-0.533 0.238-0.533 0.533v0.533c0 0.295 0.239 0.533 0.533 0.533z"></path>
<path fill="#674d40" style="fill: var(--color2, #674d40)" d="M16 26.602c-0.294 0-0.533 0.238-0.533 0.533v0.533c0 0.295 0.239 0.533 0.533 0.533s0.533-0.238 0.533-0.533v-0.533c0-0.295-0.239-0.533-0.533-0.533z"></path>
<path fill="#674d40" style="fill: var(--color2, #674d40)" d="M27.733 15.402h-0.533c-0.294 0-0.533 0.238-0.533 0.533s0.239 0.533 0.533 0.533h0.533c0.294 0 0.533-0.238 0.533-0.533s-0.239-0.533-0.533-0.533z"></path>
<path fill="#674d40" style="fill: var(--color2, #674d40)" d="M4.8 15.402h-0.533c-0.294 0-0.533 0.238-0.533 0.533s0.239 0.533 0.533 0.533h0.533c0.294 0 0.533-0.238 0.533-0.533s-0.239-0.533-0.533-0.533z"></path>
<path fill="#674d40" style="fill: var(--color2, #674d40)" d="M23.919 7.261l-0.377 0.377c-0.209 0.209-0.209 0.546 0 0.754 0.104 0.104 0.241 0.156 0.377 0.156s0.273-0.052 0.377-0.156l0.377-0.377c0.209-0.209 0.209-0.546 0-0.754s-0.546-0.208-0.754 0z"></path>
<path fill="#674d40" style="fill: var(--color2, #674d40)" d="M7.703 23.478l-0.377 0.377c-0.209 0.209-0.209 0.546 0 0.754 0.104 0.104 0.241 0.156 0.377 0.156s0.273-0.052 0.377-0.156l0.377-0.377c0.209-0.209 0.209-0.546 0-0.754s-0.546-0.208-0.754 0z"></path>
<path fill="#674d40" style="fill: var(--color2, #674d40)" d="M24.297 23.478c-0.209-0.209-0.546-0.209-0.754 0s-0.209 0.546 0 0.754l0.377 0.377c0.104 0.104 0.241 0.156 0.377 0.156s0.273-0.052 0.377-0.156c0.209-0.209 0.209-0.546 0-0.754l-0.377-0.377z"></path>
<path fill="#674d40" style="fill: var(--color2, #674d40)" d="M8.080 7.261c-0.209-0.209-0.546-0.209-0.754 0s-0.209 0.546 0 0.754l0.377 0.377c0.104 0.104 0.241 0.156 0.377 0.156s0.273-0.052 0.377-0.156c0.209-0.209 0.209-0.546 0-0.754l-0.377-0.377z"></path>
</symbol>
<symbol id="icon-Frame-20" viewBox="0 0 32 32">
<path fill="#674d40" style="fill: var(--color2, #674d40)" d="M10.936 1.684c-3.395 0-6.161 2.765-6.161 6.161s2.765 6.161 6.161 6.161c3.395 0 6.161-2.765 6.161-6.161s-2.765-6.161-6.161-6.161zM10.936 12.972c-2.835 0-5.134-2.305-5.134-5.134s2.305-5.134 5.134-5.134c2.835 0 5.134 2.305 5.134 5.134s-2.305 5.134-5.134 5.134z"></path>
<path fill="#674d40" style="fill: var(--color2, #674d40)" d="M23.553 4.242c-2.551 0-4.623 2.072-4.623 4.624s2.072 4.624 4.623 4.624c2.551 0 4.624-2.072 4.624-4.624s-2.072-4.624-4.624-4.624zM23.553 12.468c-1.984 0-3.597-1.613-3.597-3.597s1.613-3.597 3.597-3.597c1.984 0 3.597 1.613 3.597 3.597s-1.612 3.597-3.597 3.597z"></path>
<path fill="#674d40" style="fill: var(--color2, #674d40)" d="M31.824 20.267c-0.466-2.809-2.211-5.178-5.184-6.419 0 0-1.317 0.995-3.086 0.964-1.934-0.038-3.087-0.964-3.087-0.964s-1.436 0.535-2.595 1.65c-1.071-0.951-2.879-1.726-2.879-1.726s-1.657 1.26-4.063 1.241c-2.526-0.019-4.050-1.241-4.050-1.241s-5.461 1.877-6.614 8.245c0 0-1.235 3.376 1.625 8.422h18.097c0 0 1.285-2.236 1.512-3.597h9.001c2.211-3.351 1.323-6.576 1.323-6.576zM19.351 29.413h-16.825c-2.198-4.176-1.247-7.225-1.247-7.225 0.535-3.194 2.589-5.89 5.524-7.257 2.52 1.48 5.751 1.48 8.271 0 2.935 1.367 4.989 4.063 5.524 7.257-0.006 0 0.907 3.754-1.247 7.225zM29.902 25.816h-8.195c0.315-1.814-0.101-3.798-0.101-3.798-0.372-2.242-1.43-4.264-2.98-5.827 0.529-0.479 1.115-0.876 1.757-1.184 1.934 1.109 4.397 1.109 6.331 0 2.173 1.039 3.698 3.049 4.094 5.43 0 0 0.75 2.545-0.907 5.379z"></path>
</symbol>
<symbol id="icon-Frame-19" viewBox="0 0 32 32">
<path fill="#674d40" style="fill: var(--color2, #674d40)" d="M23.15 9.631c-0.121 0-0.237-0.048-0.323-0.134s-0.134-0.202-0.134-0.323c-0.036-1.751-0.756-3.419-2.007-4.645s-2.933-1.913-4.685-1.913c-1.752 0-3.434 0.687-4.685 1.913s-1.972 2.894-2.007 4.645c0 0.121-0.048 0.238-0.134 0.323s-0.202 0.134-0.323 0.134c-0.121 0-0.238-0.048-0.323-0.134s-0.134-0.202-0.134-0.323c0.031-1.997 0.846-3.902 2.269-5.303s3.34-2.187 5.337-2.187c1.997 0 3.914 0.785 5.337 2.187s2.238 3.306 2.269 5.303c0 0.121-0.048 0.238-0.134 0.323s-0.202 0.134-0.323 0.134z"></path>
<path fill="#674d40" style="fill: var(--color2, #674d40)" d="M24.484 19.976c-0.121 0.001-0.238-0.047-0.324-0.132s-0.135-0.201-0.136-0.323c-0.001-0.121 0.047-0.238 0.132-0.324s0.201-0.135 0.323-0.136c1.741-0.010 3.408-0.703 4.644-1.93s1.94-2.889 1.963-4.63c-0.017-1.758-0.731-3.437-1.985-4.67s-2.945-1.917-4.703-1.904c-0.675-0.001-1.346 0.098-1.992 0.295-0.115 0.034-0.239 0.020-0.345-0.037s-0.185-0.153-0.22-0.268c-0.035-0.115-0.024-0.239 0.032-0.345s0.151-0.187 0.265-0.224c0.732-0.223 1.494-0.337 2.26-0.336 2-0.013 3.924 0.768 5.349 2.172s2.235 3.316 2.253 5.316c-0.023 1.981-0.823 3.874-2.228 5.272s-3.301 2.188-5.282 2.202h-0.006z"></path>
<path fill="#674d40" style="fill: var(--color2, #674d40)" d="M7.515 19.976h-0.005c-1.981-0.014-3.878-0.805-5.282-2.202s-2.204-3.291-2.228-5.272c0.018-2 0.828-3.912 2.253-5.316s3.349-2.185 5.349-2.172c0.766-0.001 1.527 0.112 2.26 0.336 0.058 0.017 0.112 0.045 0.16 0.083s0.086 0.085 0.115 0.138c0.029 0.053 0.047 0.112 0.053 0.172s-0 0.121-0.018 0.179c-0.018 0.058-0.047 0.112-0.086 0.158s-0.086 0.085-0.14 0.113c-0.054 0.028-0.113 0.045-0.173 0.050s-0.121-0.002-0.179-0.020c-0.646-0.197-1.317-0.296-1.992-0.295-1.758-0.013-3.449 0.672-4.703 1.904s-1.968 2.912-1.985 4.67c0.023 1.741 0.727 3.403 1.963 4.63s2.903 1.92 4.644 1.93c0.060 0 0.119 0.012 0.175 0.036s0.106 0.057 0.148 0.1c0.042 0.043 0.076 0.093 0.098 0.149s0.034 0.115 0.034 0.175c-0 0.060-0.013 0.119-0.036 0.175s-0.057 0.105-0.1 0.148c-0.043 0.042-0.093 0.075-0.149 0.098s-0.115 0.034-0.175 0.034z"></path>
<path fill="#674d40" style="fill: var(--color2, #674d40)" d="M24.485 31.348h-16.969c-0.121 0-0.238-0.048-0.323-0.134s-0.134-0.202-0.134-0.323v-11.372c0-0.121 0.048-0.237 0.134-0.323s0.202-0.134 0.323-0.134c0.121 0 0.237 0.048 0.323 0.134s0.134 0.202 0.134 0.323v10.915h16.055v-10.915c0-0.121 0.048-0.237 0.134-0.323s0.202-0.134 0.323-0.134c0.121 0 0.237 0.048 0.323 0.134s0.134 0.202 0.134 0.323v11.372c0 0.121-0.048 0.237-0.134 0.323s-0.202 0.134-0.323 0.134z"></path>
<path fill="#674d40" style="fill: var(--color2, #674d40)" d="M27.666 26.918h-16.969c-0.121 0-0.238-0.048-0.323-0.134s-0.134-0.202-0.134-0.323c0-0.121 0.048-0.238 0.134-0.323s0.202-0.134 0.323-0.134h16.969c0.121 0 0.237 0.048 0.323 0.134s0.134 0.202 0.134 0.323c0 0.121-0.048 0.237-0.134 0.323s-0.202 0.134-0.323 0.134z"></path>
</symbol>
<symbol id="icon-Frame-10" viewBox="0 0 32 32">
<path d="M22.512 0.007l-3.617-0.007c-4.064 0-6.69 3.091-6.69 7.875v3.631h-3.637c-0.314 0-0.569 0.292-0.569 0.653v5.261c0 0.361 0.255 0.652 0.569 0.652h3.637v13.275c0 0.36 0.254 0.652 0.569 0.652h4.745c0.314 0 0.569-0.292 0.569-0.652v-13.275h4.252c0.314 0 0.569-0.292 0.569-0.652l0.002-5.261c0-0.173-0.060-0.339-0.167-0.461s-0.252-0.191-0.402-0.191h-4.254v-3.078c0-1.479 0.307-2.23 1.987-2.23l2.437-0.001c0.314 0 0.568-0.292 0.568-0.652v-4.885c0-0.36-0.254-0.652-0.568-0.652z"></path>
</symbol>
<symbol id="icon-Frame-8" viewBox="0 0 32 32">
<path d="M16.316 32c-0.106 0-0.212 0-0.319-0-2.508 0.006-4.826-0.058-7.080-0.195-2.066-0.126-3.953-0.84-5.455-2.065-1.45-1.182-2.44-2.781-2.942-4.75-0.438-1.715-0.461-3.398-0.483-5.026-0.016-1.168-0.033-2.553-0.036-3.96 0.003-1.414 0.020-2.798 0.036-3.966 0.022-1.628 0.045-3.311 0.483-5.026 0.503-1.97 1.493-3.568 2.942-4.75 1.503-1.225 3.389-1.939 5.456-2.065 2.254-0.137 4.572-0.201 7.086-0.195 2.509-0.005 4.826 0.058 7.080 0.195 2.066 0.126 3.953 0.84 5.455 2.065 1.45 1.182 2.44 2.781 2.943 4.75 0.437 1.715 0.461 3.398 0.483 5.026 0.016 1.168 0.033 2.553 0.036 3.96v0.006c-0.003 1.408-0.020 2.792-0.036 3.96-0.022 1.628-0.045 3.311-0.483 5.026-0.503 1.97-1.493 3.568-2.943 4.75-1.502 1.225-3.389 1.939-5.455 2.065-2.159 0.131-4.376 0.195-6.768 0.195zM15.997 29.5c2.468 0.006 4.733-0.056 6.934-0.19 1.563-0.095 2.917-0.602 4.027-1.507 1.026-0.837 1.732-1.991 2.1-3.431 0.364-1.428 0.385-2.96 0.406-4.442 0.016-1.16 0.032-2.535 0.036-3.929-0.004-1.394-0.020-2.769-0.036-3.929-0.020-1.482-0.041-3.015-0.406-4.443-0.367-1.44-1.074-2.594-2.1-3.431-1.11-0.905-2.465-1.412-4.027-1.507-2.201-0.134-4.467-0.196-6.928-0.19-2.467-0.006-4.733 0.056-6.934 0.19-1.563 0.095-2.917 0.602-4.027 1.507-1.026 0.837-1.732 1.991-2.1 3.431-0.364 1.428-0.385 2.96-0.406 4.443-0.016 1.161-0.032 2.537-0.036 3.932 0.003 1.389 0.020 2.765 0.036 3.926 0.020 1.482 0.041 3.015 0.406 4.442 0.367 1.44 1.074 2.594 2.1 3.431 1.11 0.905 2.465 1.412 4.027 1.507 2.201 0.134 4.467 0.197 6.928 0.191zM15.937 23.812c-4.308 0-7.813-3.505-7.813-7.812s3.505-7.813 7.813-7.813c4.308 0 7.813 3.505 7.813 7.813s-3.505 7.812-7.813 7.812zM15.937 10.687c-2.929 0-5.313 2.383-5.313 5.313s2.383 5.312 5.313 5.312c2.93 0 5.313-2.383 5.313-5.312s-2.383-5.313-5.313-5.313zM24.625 5.687c-1.035 0-1.875 0.839-1.875 1.875s0.84 1.875 1.875 1.875c1.036 0 1.875-0.839 1.875-1.875s-0.839-1.875-1.875-1.875z"></path>
</symbol>
<symbol id="icon-Frame-9" viewBox="0 0 32 32">
<path d="M32 5.441c-1.19 0.583-2.458 0.97-3.78 1.158 1.36-0.908 2.398-2.334 2.886-4.053-1.268 0.845-2.668 1.442-4.16 1.775-1.204-1.433-2.92-2.321-4.792-2.321-3.632 0-6.556 3.295-6.556 7.335 0 0.581 0.044 1.14 0.152 1.672-5.454-0.297-10.28-3.219-13.522-7.671-0.566 1.098-0.898 2.354-0.898 3.707 0 2.54 1.17 4.791 2.914 6.095-1.054-0.022-2.088-0.364-2.964-0.903 0 0.022 0 0.051 0 0.080 0 3.564 2.274 6.524 5.256 7.206-0.534 0.163-1.116 0.241-1.72 0.241-0.42 0-0.844-0.027-1.242-0.125 0.85 2.904 3.262 5.039 6.13 5.109-2.232 1.952-5.066 3.128-8.134 3.128-0.538 0-1.054-0.027-1.57-0.101 2.906 2.095 6.35 3.291 10.064 3.291 12.072 0 18.672-11.178 18.672-20.868 0-0.324-0.010-0.637-0.024-0.948 1.302-1.033 2.396-2.323 3.288-3.807z"></path>
</symbol>
<symbol id="icon-menu" viewBox="0 0 60 32">
<path d="M2 0h56c1.105 0 2 0.895 2 2s-0.895 2-2 2h-56c-1.105 0-2-0.895-2-2s0.895-2 2-2z"></path>
<path d="M2 14h56c1.105 0 2 0.895 2 2s-0.895 2-2 2h-56c-1.105 0-2-0.895-2-2s0.895-2 2-2z"></path>
<path d="M2 28h56c1.105 0 2 0.895 2 2s-0.895 2-2 2h-56c-1.105 0-2-0.895-2-2s0.895-2 2-2z"></path>
</symbol>
<symbol id="icon-logo-2" viewBox="0 0 68 32">
<path d="M40.514 15.811c0 0.255-0.008 0.511 0 0.766 0.085 2.598-0.705 4.939-1.975 7.146-0.426 0.74-0.832 1.493-1.199 2.266-0.302 0.636-0.723 1.081-1.376 1.342-0.365 0.145-0.703 0.396-1.009 0.655-1.408 1.193-3.006 2.048-4.715 2.65-1.135 0.4-2.304 0.751-3.537 0.735-0.368-0.004-0.736 0.112-1.105 0.113s-0.736-0.121-1.101-0.105c-1.59 0.070-3.063-0.432-4.526-0.959-1.596-0.574-3.006-1.482-4.332-2.564-1.871-1.526-3.204-3.447-4.185-5.647-0.528-1.186-0.958-2.41-1.080-3.725-0.020-0.218-0.091-0.435-0.153-0.646-0.445-1.476-0.189-2.924 0.086-4.394 0.21-1.125 0.427-2.236 0.837-3.304 1.083-2.825 2.804-5.138 5.187-6.954 1.987-1.513 4.21-2.443 6.628-2.843 2.774-0.459 5.482-0.128 8.11 0.943 1.311 0.536 2.548 1.216 3.628 2.115 1.008 0.839 1.917 1.82 2.776 2.823 0.778 0.909 1.331 1.992 1.824 3.097 0.771 1.726 1.273 3.512 1.222 5.432-0.011 0.355-0.003 0.706-0.003 1.058zM39.449 12.314c-0.077-0.603-0.125-1.302-0.268-1.98-0.409-1.951-1.511-3.475-2.979-4.719-0.833-0.707-1.742-1.322-2.638-1.947-0.303-0.212-0.656-0.406-1.010-0.471-0.91-0.172-1.831-0.333-2.754-0.381-1.602-0.084-3.040-0.508-4.25-1.65-0.89-0.84-1.859-0.922-2.784-0.182-1.049 0.838-2.242 1.33-3.458 1.816-0.891 0.357-1.75 0.806-2.607 1.25-0.716 0.372-1.133 0.951-1.123 1.829 0.006 0.492-0.214 0.904-0.659 1.176-0.371 0.229-0.727 0.482-1.066 0.757-0.948 0.765-1.687 1.627-1.846 2.965-0.126 1.058-0.438 2.104-1.145 2.975-0.236 0.3-0.383 0.663-0.422 1.047-0.065 0.791-0.038 1.591-0.019 2.387 0.005 0.213 0.095 0.441 0.202 0.629 0.244 0.443 0.51 0.873 0.797 1.288 0.694 0.99 1.297 2.004 1.437 3.261 0.135 1.218 0.708 2.21 1.679 2.968 1.405 1.098 2.76 2.263 4.187 3.332 0.767 0.576 1.588 1.080 2.599 1.196s2.003 0.399 2.909 0.922c0.19 0.105 0.398 0.171 0.613 0.193 1.279 0.141 2.463-0.184 3.587-0.798 0.352-0.193 0.715-0.367 1.080-0.535 0.878-0.403 1.851-0.668 2.616-1.229 0.851-0.626 1.76-0.904 2.737-1.079 0.422-0.076 0.767-0.254 1.041-0.576 0.328-0.382 0.631-0.786 0.973-1.155 0.353-0.381 0.608-0.786 0.67-1.328 0.095-0.832 0.442-1.566 0.882-2.272 0.745-1.192 1.169-2.509 1.389-3.91 0.058-0.367 0.091-0.678-0.087-1.002-0.513-0.933-0.304-1.993-0.466-2.986-0.082-0.537 0.107-1.124 0.186-1.794l-0.002 0.001zM33.275 2.992c-0.217-0.246-0.285-0.357-0.383-0.425-0.177-0.126-0.37-0.228-0.559-0.337-1.61-0.93-3.373-1.383-5.175-1.708-0.362-0.066-0.743-0.036-1.112-0.022-0.096 0.004-0.211 0.099-0.272 0.186-0.028 0.039 0.035 0.177 0.088 0.242 0.401 0.49 0.924 0.86 1.513 1.069 1.017 0.376 2.086 0.582 3.167 0.61 0.458 0.013 0.914 0.102 1.37 0.165 0.389 0.057 0.777 0.125 1.362 0.218zM19.596 29.805c-1.081-0.906-2.028-1.716-2.992-2.504-0.798-0.652-1.614-1.282-2.429-1.911-0.092-0.071-0.236-0.069-0.437-0.122 0.983 1.693 4.265 4.264 5.858 4.537zM12.315 8.663c0.652-0.511 1.255-1.048 1.917-1.493 0.928-0.62 1.283-1.392 1.064-2.716-0.659 0.552-1.128 1.218-1.636 1.823-0.537 0.638-0.935 1.397-1.382 2.111-0.034 0.058 0.021 0.172 0.038 0.275zM34.294 27.979c-0.608-0.043-1.22 0.067-1.602 0.404-0.724 0.638-1.585 0.959-2.461 1.279-0.46 0.167-0.894 0.413-1.327 0.648-0.060 0.032-0.071 0.205-0.059 0.306 0.004 0.034 0.166 0.090 0.233 0.067 0.787-0.275 1.599-0.497 2.344-0.864 0.914-0.45 1.771-1.019 2.645-1.547 0.092-0.053 0.14-0.177 0.225-0.293zM11.067 19.126c-0.175 0.528-0.14 0.821-0.030 1.133 0.305 0.864 0.49 1.777 1.039 2.532 0.204 0.28 0.245 0.906 0.621 0.771 0.331-0.118-0.056-0.614-0.079-0.948-0.087-1.277-0.741-2.307-1.551-3.488zM16.964 3.22l0.082 0.126c0.454-0.173 0.913-0.336 1.363-0.521 0.977-0.402 1.951-0.812 2.923-1.229 0.196-0.085 0.375-0.221 0.542-0.358 0.047-0.039 0.038-0.171 0.024-0.253-0.008-0.037-0.1-0.076-0.153-0.079-0.091 0.002-0.181 0.017-0.268 0.046-1.32 0.385-2.565 0.954-3.757 1.645-0.279 0.162-0.505 0.413-0.754 0.623zM40.152 16.937c0.080-0.095 0.142-0.135 0.147-0.18 0.129-1.392-0.015-2.771-0.201-4.146-0.009-0.069-0.103-0.168-0.166-0.176-0.070-0.009-0.179 0.050-0.222 0.115-0.070 0.102-0.114 0.221-0.127 0.345-0.070 1.134 0.003 2.273 0.217 3.389 0.042 0.225 0.224 0.423 0.352 0.654zM10.748 13.097c0.515-0.202 0.592-0.567 0.647-0.896 0.135-0.803 0.471-1.577 0.36-2.426-0.539 1.014-1.016 2.041-1.007 3.322h-0zM23.218 30.735c-1.155-0.524-1.468-0.579-2.496-0.432 0.436 0.169 0.828 0.438 1.223 0.443 0.411 0.006 0.857 0.523 1.274-0.011h-0z"></path>
<path d="M25.6 20.313c-0.79-0.015-1.332-0.354-1.734-1.009-0.374-0.611-0.997-0.928-1.567-1.304-0.719-0.474-1.303-1.009-1.469-1.971-0.115-0.652 0.019-1.218 0.277-1.733 0.217-0.43 0.603-0.83 1.009-1.086 0.44-0.277 0.805-0.539 1.008-1.051 0.23-0.589 0.81-0.625 1.323-0.731 0.483-0.1 0.975-0.164 1.451-0.289 0.652-0.171 1.243-0.118 1.719 0.403 0.368 0.404 0.798 0.693 1.277 0.939 0.498 0.255 0.663 0.552 0.507 1.084-0.106 0.361-0.003 0.607 0.128 0.895 0.143 0.314 0.291 0.634 0.389 0.966 0.328 1.105-0.049 2.035-1.060 2.527-0.626 0.305-1.106 0.711-1.262 1.426-0.062 0.288-0.238 0.451-0.485 0.526-0.5 0.15-1.007 0.274-1.511 0.408zM28.915 15.681c0.016-1.946-1.422-3.503-3.293-3.505-1.678 0-3.367 1.165-3.432 3.397-0.053 1.787 1.398 3.451 3.29 3.457 2.304 0.012 3.39-1.629 3.435-3.35zM22.172 17.542c0-0.25 0.023-0.377-0.003-0.492-0.248-1.057-0.409-2.104 0.153-3.123 0.041-0.073-0.053-0.224-0.084-0.339-0.11 0.037-0.244 0.044-0.327 0.114-0.93 0.783-1.344 2.662 0.262 3.839zM25.624 11.688c0.389 0.146 0.611 0.25 0.843 0.314 0.857 0.233 1.588 0.651 2.097 1.421 0.1 0.152 0.23 0.377 0.422 0.204 0.102-0.092 0.135-0.374 0.077-0.515-0.079-0.187-0.26-0.421-0.433-0.458-0.471-0.101-0.728-0.451-1.035-0.756-0.516-0.508-1.092-0.668-1.971-0.211zM25.571 19.349l-0.012-0.073c-0.247 0-0.496-0.022-0.739 0.009-0.125 0.016-0.238 0.125-0.357 0.191 0.108 0.098 0.202 0.252 0.326 0.284 0.664 0.172 1.333 0.209 1.988-0.054 0.112-0.045 0.237-0.104 0.307-0.196 0.062-0.079 0.082-0.218 0.070-0.324-0.005-0.039-0.16-0.099-0.236-0.086-0.45 0.072-0.897 0.163-1.344 0.249l-0.002 0.001zM28.967 17.353c0.46-0.088 0.666-0.354 0.692-0.763 0.020-0.345 0.015-0.691-0.015-1.034-0.007-0.091-0.131-0.172-0.201-0.257-0.102 0.099-0.31 0.233-0.291 0.293 0.187 0.597-0.204 1.131-0.186 1.761v0.001z"></path>
<path d="M33.175 20.048c-0.026 0.014-0.133 0.105-0.248 0.118-0.105 0.012-0.258-0.024-0.324-0.099-0.327-0.378-0.644-0.767-0.937-1.174-0.077-0.106-0.108-0.393-0.064-0.418 0.144-0.081 0.425-0.166 0.487-0.096 0.37 0.418 0.695 0.878 1.030 1.33 0.033 0.045 0.023 0.123 0.056 0.339z"></path>
<path d="M17.514 23.325c0.171 0.014 0.509 0.025 0.838 0.082 0.082 0.015 0.192 0.179 0.192 0.277s-0.095 0.268-0.177 0.289c-0.64 0.163-1.277 0.203-1.844-0.236-0.032-0.031-0.057-0.068-0.072-0.11s-0.022-0.087-0.018-0.131c0.012-0.066 0.112-0.157 0.178-0.162 0.246-0.021 0.492-0.009 0.903-0.009z"></path>
<path d="M37.576 9.508l0.242 0.136c-0.069 0.126-0.111 0.329-0.211 0.365-0.461 0.174-0.934 0.312-1.415 0.414-0.138 0.028-0.339-0.112-0.467-0.227-0.147-0.133-0.059-0.422 0.126-0.451 0.545-0.086 1.095-0.152 1.724-0.237z"></path>
<path d="M21.28 26.138c0.256 0.123 0.47 0.157 0.575 0.288 0.287 0.365 0.549 0.749 0.785 1.15 0.115 0.191 0.010 0.398-0.184 0.453-0.106 0.030-0.299-0.059-0.377-0.157-0.312-0.386-0.602-0.791-0.867-1.212-0.061-0.1 0.034-0.301 0.068-0.521z"></path>
<path d="M31.328 10.934c0.016-0.112 0-0.239 0.051-0.288 0.069-0.064 0.217-0.118 0.288-0.083 0.097 0.048 0.16 0.178 0.227 0.281 0.186 0.285 0.369 0.572 0.546 0.864 0.079 0.131 0.185 0.27 0.192 0.411 0.008 0.13-0.070 0.3-0.166 0.389-0.053 0.050-0.273 0.018-0.327-0.052-0.354-0.462-0.779-0.894-0.81-1.522z"></path>
<path d="M32.43 6.029c-0.077 0.471-0.107 0.818-0.197 1.151-0.056 0.18-0.163 0.338-0.307 0.455-0.102 0.084-0.279 0.072-0.422 0.103-0.011-0.137-0.053-0.28-0.029-0.41 0.075-0.402 0.175-0.798 0.264-1.197 0.007-0.031 0.005-0.064 0.014-0.094 0.071-0.24 0.223-0.424 0.467-0.324 0.123 0.050 0.181 0.271 0.209 0.317z"></path>
<path d="M25.82 9.095c0.215 0.028 0.494 0.042 0.76 0.108 0.091 0.022 0.225 0.19 0.209 0.262-0.028 0.129-0.133 0.299-0.243 0.338-0.176 0.056-0.364 0.057-0.54 0.003-0.307-0.1-0.592-0.134-0.898-0.002-0.201 0.086-0.389-0.004-0.443-0.209-0.072-0.275 0.13-0.408 0.357-0.447 0.241-0.041 0.491-0.035 0.799-0.053z"></path>
<path d="M30.601 22.641c-0.087 0.39-0.153 0.732-0.247 1.067-0.018 0.066-0.153 0.154-0.21 0.139-0.102-0.026-0.245-0.108-0.266-0.194-0.046-0.185-0.051-0.378-0.015-0.565 0.072-0.343 0.143-0.668 0.008-1.018-0.064-0.168-0.046-0.435 0.202-0.434 0.134 0 0.326 0.17 0.386 0.31 0.098 0.224 0.104 0.488 0.142 0.696z"></path>
<path d="M26.829 22.541c-0.050 0.092-0.074 0.2-0.14 0.246-0.404 0.285-0.808 0.572-1.233 0.821-0.108 0.064-0.299 0.024-0.437-0.018-0.203-0.062-0.245-0.335-0.077-0.446 0.465-0.305 0.932-0.608 1.411-0.889 0.077-0.045 0.23 0.003 0.329 0.054 0.067 0.035 0.096 0.146 0.147 0.232z"></path>
<path d="M21.686 4.212c0.066 0.039 0.189 0.074 0.205 0.136 0.16 0.605 0.315 1.213 0.442 1.826 0.035 0.17-0.184 0.265-0.332 0.163-0.463-0.32-0.752-1.504-0.482-2 0.028-0.049 0.096-0.074 0.166-0.125z"></path>
<path d="M27.413 5.932c-0.14-0.095-0.29-0.144-0.311-0.227-0.022-0.090 0.050-0.242 0.128-0.314 0.34-0.312 0.696-0.605 1.066-0.878 0.125-0.090 0.383-0.154 0.479-0.083 0.226 0.163 0.107 0.393-0.050 0.561-0.212 0.227-0.422 0.466-0.665 0.649-0.187 0.138-0.427 0.197-0.647 0.293z"></path>
<path d="M18.6 9.131l-0.339 0.328c-0.097-0.107-0.24-0.196-0.281-0.325-0.163-0.501-0.299-1.012-0.428-1.523-0.018-0.070 0.038-0.214 0.096-0.238 0.094-0.039 0.248-0.055 0.32 0 0.141 0.106 0.301 0.249 0.347 0.409 0.121 0.416 0.184 0.852 0.285 1.349z"></path>
<path d="M14.89 17.535c-0.311 0.584-0.547 1.183-1.126 1.501-0.097 0.053-0.313-0.015-0.417-0.1-0.177-0.144 0-0.264 0.086-0.387 0.272-0.384 0.523-0.783 0.812-1.152 0.074-0.095 0.263-0.141 0.392-0.128 0.087 0.008 0.159 0.161 0.253 0.267z"></path>
<path d="M18.402 17.584c0.162 0.096 0.28 0.125 0.302 0.188 0.036 0.104 0.055 0.267 0 0.339-0.089 0.115-0.241 0.181-0.372 0.258-0.34 0.2-0.675 0.411-1.029 0.581-0.108 0.052-0.303 0.036-0.399-0.034-0.197-0.144-0.128-0.375 0.031-0.477 0.485-0.312 0.996-0.584 1.467-0.855z"></path>
<path d="M35.978 14.938c-0.125 0.289-0.3 0.724-0.509 1.143-0.032 0.065-0.234 0.1-0.319 0.061-0.079-0.037-0.166-0.2-0.15-0.289 0.084-0.466 0.176-0.933 0.317-1.382 0.043-0.137 0.237-0.262 0.386-0.308 0.055-0.017 0.2 0.196 0.268 0.327 0.039 0.074 0.007 0.187 0.007 0.448z"></path>
<path d="M14.793 11.467c0.55 0.506 0.485 1.193 0.546 1.828 0.011 0.118-0.132 0.286-0.246 0.372-0.060 0.045-0.303-0.027-0.309-0.068-0.087-0.641-0.153-1.285-0.207-1.93-0.004-0.055 0.125-0.122 0.215-0.201z"></path>
<path d="M27.648 27.137c0.092 0.025 0.183 0.055 0.272 0.091 0.33 0.157 0.663 0.31 0.985 0.483 0.153 0.082 0.307 0.184 0.417 0.314 0.127 0.151-0.018 0.442-0.195 0.402-0.6-0.133-1.185-0.318-1.634-0.778-0.066-0.068-0.065-0.238-0.043-0.351 0.013-0.064 0.128-0.108 0.199-0.161z"></path>
<path d="M20.352 11.652c0.032 0.102 0.141 0.26 0.102 0.359-0.201 0.524-0.434 1.037-0.672 1.546-0.029 0.063-0.153 0.118-0.227 0.108-0.064-0.008-0.153-0.101-0.17-0.171-0.126-0.567 0.271-1.582 0.713-1.837 0.046-0.026 0.118-0.004 0.254-0.004z"></path>
<path d="M37.496 20.26c-0.069-0.045-0.213-0.099-0.288-0.205-0.030-0.042 0.067-0.234 0.15-0.295 0.369-0.275 0.745-0.538 1.138-0.773 0.106-0.063 0.326-0.068 0.404 0.003 0.072 0.066 0.082 0.314 0.018 0.405-0.329 0.47-0.744 0.828-1.421 0.864z"></path>
<path d="M35.218 24.306c-0.284-0.030-0.408-0.033-0.527-0.061-0.050-0.011-0.125-0.072-0.126-0.112-0.005-0.089 0.017-0.178 0.065-0.253 0.061-0.071 0.141-0.122 0.23-0.147 0.439-0.135 0.877-0.271 1.323-0.38 0.097-0.024 0.3 0.042 0.313 0.098 0.029 0.134-0.006 0.297-0.057 0.432-0.027 0.071-0.136 0.131-0.219 0.157-0.381 0.107-0.764 0.203-1.002 0.266z"></path>
<path d="M22.012 21.059c-0.031 0.137-0.082 0.441-0.181 0.727-0.025 0.071-0.216 0.14-0.304 0.114s-0.192-0.175-0.189-0.268c0.009-0.53 0.035-1.061 0.087-1.588 0.011-0.115 0.153-0.217 0.235-0.324 0.098 0.106 0.257 0.2 0.282 0.323 0.056 0.273 0.044 0.561 0.069 1.017z"></path>
<path d="M42.564 4.474c0-1.123 0.265-1.974 0.795-2.554 0.536-0.586 1.222-0.879 2.059-0.879s1.502 0.253 1.995 0.759c0.5 0.506 0.749 1.314 0.749 2.425s-0.265 1.95-0.795 2.517c-0.53 0.568-1.237 0.851-2.122 0.851-0.764 0-1.391-0.225-1.878-0.676-0.253-0.234-0.452-0.558-0.596-0.972-0.138-0.42-0.208-0.91-0.208-1.471zM45.391 1.133c-0.608 0-1.108 0.278-1.499 0.833-0.385 0.555-0.578 1.37-0.578 2.443s0.184 1.857 0.551 2.351c0.367 0.494 0.855 0.74 1.463 0.74 0.614 0 1.114-0.278 1.499-0.833 0.391-0.561 0.587-1.373 0.587-2.434 0-1.067-0.187-1.851-0.56-2.35-0.367-0.5-0.855-0.75-1.463-0.75z"></path>
<path d="M49.724 7.556h-0.749v-6.478h0.749v2.98h2.935v-2.98h0.749v6.478h-0.749v-3.405h-2.935v3.405z"></path>
<path d="M57.261 7.556h-0.117l0.786-6.478h0.298l1.896 5.987 1.887-5.987h0.298l0.786 6.478h-0.749l-0.623-5.182-1.634 5.182h-0.569l-1.652-5.117-0.605 5.117z"></path>
<path d="M68.095 1.078c0.114 0.117 0.172 0.268 0.172 0.453 0 0.154-0.033 0.312-0.099 0.472l-1.616 3.359v2.193h-0.749v-1.99l-1.806-4.488h0.767l1.725 4.173 1.571-3.248c0.066-0.154 0.099-0.315 0.099-0.481s-0.045-0.296-0.135-0.389l0.072-0.056z"></path>
<path d="M1.273 9.258c0.467-0.022 0.923-0.033 1.368-0.033 0.456 0 0.933 0.049 1.432 0.147 0.509 0.098 1.008 0.283 1.496 0.554 0.499 0.261 0.918 0.603 1.257 1.027 0.35 0.413 0.631 0.962 0.843 1.647s0.318 1.517 0.318 2.495c0 0.978-0.159 1.859-0.477 2.642-0.308 0.772-0.732 1.364-1.273 1.777-1.050 0.804-2.318 1.207-3.803 1.207-0.52 0-1.066-0.022-1.639-0.065h-0.796v-11.399h1.273zM1.321 20.526c0.223 0.022 0.504 0.033 0.843 0.033s0.594-0.005 0.764-0.016c0.17-0.011 0.403-0.054 0.7-0.13 0.297-0.087 0.573-0.201 0.827-0.342s0.52-0.348 0.796-0.62c0.286-0.283 0.53-0.614 0.732-0.995 0.456-0.891 0.684-2.055 0.684-3.49 0-1.022-0.122-1.902-0.366-2.642-0.244-0.75-0.525-1.305-0.843-1.663-0.308-0.359-0.684-0.641-1.13-0.848-0.446-0.217-0.801-0.342-1.066-0.375s-0.573-0.049-0.923-0.049-0.69 0.016-1.018 0.049v11.089z"></path>
<path d="M42.823 20.656h-0.207v-11.415h0.541l6.619 10.551v-10.551h0.207v11.415h-1.162l-5.999-9.458v9.458z"></path>
<path d="M59.781 9.241h0.207v6.523c0 1.707-0.329 2.962-0.987 3.767-0.658 0.794-1.517 1.19-2.578 1.19-0.668 0-1.236-0.060-1.702-0.179-0.467-0.13-0.907-0.364-1.321-0.701-0.849-0.674-1.273-2.033-1.273-4.077v-6.523h1.321v6.507c0 1.979 0.292 3.3 0.875 3.963 0.297 0.326 0.605 0.549 0.923 0.669 0.329 0.12 0.721 0.179 1.177 0.179 1.018 0 1.83-0.381 2.434-1.142 0.615-0.772 0.923-1.995 0.923-3.669v-6.507z"></path>
<path d="M65.415 20.656h-1.321v-11.252h-2.753v-0.163h6.842v0.163h-2.769v11.252z"></path>
</symbol>
</defs>
</svg>
